<?xml version="1.0" encoding="UTF-8" standalone="no"?>
<svg xmlns="http://www.w3.org/2000/svg"
     version="1.1">
  <path d="M20,15.9c-0.1,0.3-0.2,0.6-0.3,0.9c-0.3,0.7-0.6,1.3-1,1.8c-0.5,0.8-1,1.3-1.3,1.6c-0.5,0.5-1.1,0.7-1.7,0.7
           c-0.4,0-1-0.1-1.6-0.4c-0.6-0.2-1.2-0.4-1.7-0.4c-0.5,0-1.1,0.1-1.7,0.4C10,20.9,9.6,21,9.2,21c-0.6,0-1.2-0.2-1.7-0.8
           c-0.4-0.3-0.8-0.9-1.4-1.6c-0.6-0.8-1.1-1.8-1.5-2.9C4.2,14.5,4,13.4,4,12.2C4,11,4.3,9.9,4.8,9c0.4-0.7,1-1.3,1.7-1.8
           c0.7-0.4,1.5-0.6,2.3-0.7c0.5,0,1.1,0.1,1.8,0.4c0.7,0.3,1.2,0.4,1.4,0.4c0.2,0,0.7-0.2,1.6-0.5c0.9-0.3,1.6-0.4,2.2-0.4
           c1.6,0.1,2.8,0.8,3.6,1.9c-1.4,0.9-2.1,2.1-2.1,3.6c0,1.2,0.5,2.2,1.3,3C19.1,15.4,19.5,15.7,20,15.9z M16,2c0,0.1,0,0.3,0,0.4
           c0,0.9-0.3,1.8-1,2.7c-0.8,1-1.8,1.5-2.9,1.5c0-0.1,0-0.2,0-0.4c0-0.9,0.4-1.9,1.1-2.7c0.4-0.4,0.8-0.7,1.3-1C15,2.2,15.5,2,16,2z" />
</svg>
