<svg id="JAKE" xmlns="http://www.w3.org/2000/svg" xmlns:xlink="http://www.w3.org/1999/xlink" viewBox="0 0 108.2 170.46"><defs><style>.cls-1{fill:none;}.cls-2{fill:#66bb6a;}.cls-3{fill:#388e3c;}.cls-4{clip-path:url(#clip-path);}.cls-5{fill:url(#linear-gradient);}.cls-6{clip-path:url(#clip-path-2);}.cls-7{fill:#fafafa;}.cls-8{fill:#e0e0e0;}.cls-9{fill:#fff;}</style><clipPath id="clip-path" transform="translate(-587.48 -183.89)"><path class="cls-1" d="M641.9,191.2c-22.81,0-42.56,9.37-50.56,12.3v13.28c0,36.91.14,62.4,21.61,83.86,8.27,8.27,28.39,21.82,28.39,21.82s20.28-13.54,28.56-21.82c21.51-21.51,21.44-44.1,21.44-78.93V203.34C681.33,200.25,663.38,191.2,641.9,191.2Z"/></clipPath><linearGradient id="linear-gradient" x1="54.1" y1="18.2" x2="54.1" y2="25.55" gradientUnits="userSpaceOnUse"><stop offset="0" stop-color="#263238" stop-opacity="0.35"/><stop offset="0.42" stop-color="#263238" stop-opacity="0.15"/><stop offset="0.89" stop-color="#263238" stop-opacity="0.02"/><stop offset="1" stop-color="#263238" stop-opacity="0"/></linearGradient><clipPath id="clip-path-2" transform="translate(-587.48 -183.89)"><path class="cls-1" d="M641.39,205.23c-14.08,0-27.22,9.82-27.22,9.82s0.9,20.39.9,28.57c0,17.68,3.37,32.29,11.23,43.2,4.44,6.17,15.1,16.26,15.1,16.26s10.4-10.09,14.84-16.26c7.86-10.91,11-25.52,11-43.2,0-8.18,1.08-28.57,1.08-28.57S654.8,205.23,641.39,205.23Z"/></clipPath></defs><title>safebrowsing-logo</title><path class="cls-2" d="M591.33,203.51v13.28c0,36.91.07,62.4,21.54,83.86,8.27,8.27,28.46,21.82,28.46,21.82V191.2C620.33,191.2,599.33,200.58,591.33,203.51Z" transform="translate(-587.48 -183.89)"/><path class="cls-3" d="M691.33,203.34c-10-3.1-29-12.14-50-12.14V322.46s20.28-13.54,28.56-21.82c21.51-21.51,21.44-44.1,21.44-78.93V203.34Z" transform="translate(-587.48 -183.89)"/><g class="cls-4"><rect class="cls-5" y="19.6" width="108.2" height="8.9"/></g><g class="cls-6"><circle class="cls-7" cx="54.3" cy="121.35" r="16.26"/><path class="cls-7" d="M641.78,333.41a27.89,27.89,0,1,1,27.89-27.89A27.92,27.92,0,0,1,641.78,333.41Zm0-50.32a22.43,22.43,0,1,0,22.43,22.43A22.46,22.46,0,0,0,641.78,283.09Z" transform="translate(-587.48 -183.89)"/><path class="cls-7" d="M641.78,345.35a39.83,39.83,0,1,1,39.83-39.83A39.87,39.87,0,0,1,641.78,345.35Zm0-73.93a34.1,34.1,0,1,0,34.1,34.1A34.14,34.14,0,0,0,641.78,271.43Z" transform="translate(-587.48 -183.89)"/><circle class="cls-7" cx="53.52" cy="55.87" r="16.48"/></g><path class="cls-8" d="M691.33,202.89v-10.2c0-3.67-5.07-8.8-9.6-8.8H600.1c-4.52,0-8.76,5.13-8.76,8.8v10.2h100Z" transform="translate(-587.48 -183.89)"/><circle class="cls-9" cx="16.19" cy="10.69" r="2.94"/><circle class="cls-9" cx="26.95" cy="10.69" r="2.94"/></svg>
